<?xml version="1.0" standalone="yes"?>
<svg xmlns="http://www.w3.org/2000/svg" width="138.904" height="128.344" viewBox="441.004 128.124 138.904 128.344">
<rect x="441.004" y="128.124" width="138.904" height="128.344" rx="18" ry="18" fill="#f8fbff"/>
<path style="fill:#1f5fa8; stroke:none;" d="M514 191C531.869 182.497 536.371 155.693 520.96 142.329C504.58 128.124 473.264 128.279 456.004 140.789C448.311 146.364 444.215 155.598 445.581 165C446.137 168.823 446.741 172.561 451.019 173.682C455.589 174.879 466.517 175.32 470.625 172.822C474.481 170.477 476.124 166.379 481 165.41C485.087 164.598 490.099 166.762 491.338 171.015C494.432 181.638 477.769 179.055 473.318 182.028C469.362 184.669 470.185 197.815 471.318 201.941C473.171 208.69 483.087 204.831 487.995 206.742C491.597 208.145 494.881 211.994 492.953 215.956C489.667 222.709 480.516 222.802 475.104 219.031C472.842 217.455 471.365 214.689 468.791 213.603C463.649 211.432 455.388 213.596 450 214.093C447.732 214.303 445.213 214.729 443.603 216.514C441.004 219.395 442.048 224.555 442.59 228C444.253 238.562 449.819 246.053 460 249.934C477.139 256.468 502.335 256.306 518 245.895C532.337 236.367 538.243 215.684 527.776 201.04C524.257 196.116 519.139 193.818 514 191M551 139.444C539.867 141.391 543 154.379 543 163L543 197C543 200.844 541.793 207.331 544.028 210.682C546.945 215.057 561.365 214.91 565.956 213.682C570.21 212.544 570.661 208.757 571.155 205C571.983 198.698 572.813 192.239 574 186C575.865 176.201 576.936 165.922 578.05 156C578.466 152.299 579.908 147.671 577.821 144.228C574.116 138.113 557.193 138.361 551 139.444M549 220.649C537.586 224.093 533.226 238.86 541.394 247.787C546.124 252.958 554.484 254.239 561 252.196C571.214 248.993 575.553 235.776 569.347 227.015C564.896 220.732 556.293 218.448 549 220.649"/>
</svg>
