<?xml version="1.0" standalone="yes"?>
<svg xmlns="http://www.w3.org/2000/svg" width="842.177" height="148.669" viewBox="102.101 376 842.177 148.669">
<defs>
  <mask id="wordmark-cutouts" x="102.101" y="376" width="842.177" height="148.669" maskUnits="userSpaceOnUse" style="mask-type:luminance">
    <rect x="102.101" y="376" width="842.177" height="148.669" fill="#fff"/>
    <path fill="#000" d="M897 444L917 444C915.34 431.618 898.405 431.493 897 444M369.004 439.693C355.98 443.169 360.522 466.209 373.996 462.332C386.753 458.661 382.309 436.142 369.004 439.693z"/>
  </mask>
</defs>
<path style="fill:#1f5fa8; stroke:none;" mask="url(#wordmark-cutouts)" d="M173 432C190.425 424.479 195.564 398.726 180.816 385.518C171.117 376.831 158.314 376 146 376C134.573 376 122.501 377.089 113.015 384.16C105.636 389.66 102.179 397.896 103.425 407C103.821 409.895 103.828 413.697 107.148 414.682C112.013 416.126 124.985 416.488 129.625 414.397C133.668 412.574 135.17 408.274 140 407.348C144.454 406.494 150.537 408.235 152.033 413.043C155.766 425.038 137.039 421.009 132.434 424.179C128.499 426.887 129.186 438.819 130.318 442.941C132.17 449.686 143.86 446.048 148.985 448.573C152.444 450.277 155.653 453.937 153.777 457.956C150.789 464.358 140.456 465.005 135.015 461.914C132.207 460.319 130.138 457.263 126.91 456.473C122.985 455.512 117.021 456.808 113 457.286C110.469 457.586 105.757 457.414 104.028 459.603C102.101 462.042 102.937 467.158 103.286 470C104.644 481.05 110.363 488.464 121 492.301C139.533 498.986 166.177 496.979 181.985 484.471C193.39 475.447 197.441 455.263 188.775 443.039C184.808 437.443 178.993 434.84 173 432M719 421C719 411.29 719.985 401.66 720 392C720.005 388.813 720.735 384.215 718.821 381.434C715.213 376.191 701.349 379.698 696.001 380.044C693.457 380.208 690.767 380.647 689.603 383.228C687.072 388.843 689 398.899 689 405L689 455L689 481C689.006 484.131 688.385 488.565 692.148 489.682C697.866 491.38 706.052 490.108 711.999 489.995C714.481 489.949 717.282 489.989 718.821 487.682C722.265 482.52 719 470.092 719 464C719 458.166 718.172 439.866 728.995 442.851C733.054 443.97 735.079 448.182 735.695 452C737.097 460.692 734.996 470.194 735 479C735.001 481.886 734.348 486.141 736.603 488.397C739.614 491.407 747.12 490 751 490C754.503 490 760.663 491.13 763.397 488.397C765.467 486.326 764.995 482.659 765 480L765 461C765 445.831 767.334 424.187 751 416C748.177 414.585 745.092 414.063 742 413.591C738.15 413.003 734.734 413.321 731 414.44C726.454 415.802 722.916 418.445 719 421M782 383.533C772.019 385.959 766.504 398.01 772.009 406.985C775.918 413.357 783.93 415.942 791 414.319C801.68 411.868 808.062 399.679 801.297 390.043C797.071 384.024 788.948 381.845 782 383.533M424 439C424 452.731 420.328 472.828 430.468 483.815C438.688 492.72 451.805 492.731 463 491.91C467.45 491.583 474.293 490.543 476.257 485.892C478.066 481.608 476.427 473.595 475.891 469.019C475.684 467.249 475.291 465.479 473.566 464.603C468.331 461.947 462.04 466.061 457.514 460.772C452.661 455.101 455.945 445.67 456 439C460.557 439 470.691 440.907 474.397 437.972C476.153 436.582 475.91 433.988 476.085 431.999C476.496 427.319 479.336 417.462 474.566 414.179C470.63 411.47 462.583 413 458 413C458 408.246 459.698 399.403 456.972 395.318C455.424 392.998 452.484 393.051 450 393.005C444.413 392.9 430.888 390.622 426.6 394.742C422.377 398.799 425.934 406.234 422.972 410.682C420.717 414.068 415.411 412.219 413.603 416.228C411.659 420.54 412.814 428.332 413.019 432.995C413.096 434.729 413.108 436.788 414.603 437.972C416.871 439.769 421.297 439 424 439M821.228 395.742C815.204 398.556 819.976 407.177 816.972 411.682C814.221 415.808 808.401 412.863 807.228 419.019C806.418 423.275 805.346 435.128 808.603 438.397C811.48 441.283 816.361 439.157 817.681 444.059C818.63 447.582 817.332 451.465 817.089 455C816.645 461.484 816.956 468.731 818.789 475C823.101 489.756 839.561 493.19 853 491.271C856.522 490.768 860.73 490.597 863.851 488.697C868.651 485.775 866.135 475.707 865.42 471.004C865.078 468.756 865.007 465.892 862.682 464.746C857.794 462.337 852.804 466.682 848.434 461.772C845.095 458.02 845.816 451.669 846.019 447.001C846.593 433.835 862.988 445.753 865.682 435.941C866.914 431.457 867.845 416.784 862.852 414.603C858.629 412.76 852.139 415.933 848.603 412.397C844.824 408.617 848.616 401.807 846.397 397.434C845.359 395.388 843.04 395.174 840.995 395.044C835.613 394.701 826.182 393.428 821.228 395.742M230 421C229.28 411.568 219.153 413.997 212 414C208.463 414.002 203.509 413.242 201.742 417.148C199.561 421.97 201 429.8 201 435C201 447.374 200.001 459.679 200 472C200 476.502 198.429 484.787 201.028 488.682C202.382 490.712 204.782 490.884 207.001 490.981C212.293 491.211 224.089 493.054 228.566 489.972C231.586 487.894 230.995 483.17 231 480C231.016 470.68 230.723 461.316 231.015 452C231.162 447.328 233.936 440.326 239.995 441.876C243.61 442.8 245.965 446.561 246.655 450C247.396 453.693 246.341 457.325 246.09 461C245.682 466.957 246 473.03 246 479C246 482.101 245.178 486.971 247.603 489.397C250.744 492.537 258.938 491 263 491C266.246 491 270.739 491.764 273.772 490.397C277.851 488.557 277.015 482.643 276.999 479C276.959 469.986 275.302 461.074 276.094 452C276.452 447.899 278.424 443.143 283.004 442.377C292.019 440.867 292.3 454.313 291.91 460C291.405 467.383 290.95 474.569 291.001 482C291.02 484.725 290.729 488.245 293.318 489.972C296.668 492.208 303.157 491 307 491C310.694 491 317.521 492.272 320.397 489.397C322.268 487.526 321.983 484.418 321.999 482L322 466C322 452.608 324.07 437.106 317.045 425.001C307.695 408.889 281.78 408.057 271 423C258.602 410.713 243.255 408.432 230 421M362 484C366.929 487.22 372.047 489.483 378 489.91C407.076 491.996 415.568 457.269 408.329 435C404.346 422.748 395.507 413.362 382 413.015C378.661 412.929 375.25 412.903 372 413.764C367.203 415.035 363.608 417.717 360 421C359.668 410.872 349.786 412.823 342 413.015C338.438 413.102 332.758 413.037 331.434 417.147C330.111 421.254 331 426.728 331 431C331 441.079 331.522 450.974 331.961 461C332.511 473.569 332.294 486.422 331.985 499C331.854 504.353 330.498 509.606 331.109 514.996C332.204 524.669 344.995 522.012 352 522C355.356 521.994 359.855 522.489 362.243 519.566C364.549 516.743 363.094 512.301 363.015 509C362.812 500.581 362.662 492.383 362 484M531 480C530.888 482.419 530.786 484.776 529.682 486.998C528.793 488.788 527.493 490.324 525.945 491.581C517.067 498.79 510.145 491.709 502 487.915C495.595 484.932 489.666 484.271 485.796 491.015C478.611 503.54 483.734 513.559 497 518.302C510.565 523.151 530.386 523.148 543 515.647C565.388 502.335 560 470.956 560 449C560 440.615 561.014 432.354 561 424C560.995 421.054 561.515 416.918 558.682 415.028C555.912 413.179 551.156 414 548 414C544.269 414 536.698 412.577 533.603 415.028C531.433 416.747 532.009 420.579 532 423C531.974 430.029 531.012 436.948 531 444C530.99 449.912 528.973 462.13 520.005 459.214C516.412 458.046 514.074 454.554 513.344 451C511.674 442.869 513.001 433.286 513 425C513 421.659 513.937 416.2 510.682 414.028C507.279 411.757 499.89 412.8 496 413.17C493.193 413.437 487.879 413.233 485.603 415.028C483.726 416.508 483.724 419.839 483.425 422C482.517 428.562 483 435.387 483 442C483 451.516 482.411 462.231 486.839 471C495.323 487.805 516.505 487.587 531 480M625 459C626.87 465.64 628.414 472.362 630.29 479C631.076 481.781 631.362 485.333 632.988 487.772C636.93 493.681 651.792 491.083 658 490.996C660.891 490.956 663.979 490.978 665.995 488.566C669.729 484.098 670.101 475.518 671.349 470L679.349 435C680.49 429.952 683.182 423.208 682.758 418.059C682.477 414.635 679.868 414.255 676.995 413.85C671.776 413.113 659.663 410.531 655.858 415.318C653.357 418.465 653.552 424.177 652.92 428C651.224 438.256 648.819 448.637 648 459L646 459C645.154 449.302 641.776 439.616 640.084 430C639.369 425.936 639.503 419.751 637.012 416.318C634.007 412.179 623.525 413.821 619.004 414.019C617.12 414.102 615.156 414.2 613.728 415.603C610.873 418.408 610.865 424.291 610.247 428C608.559 438.128 606.286 448.003 604 458C599.956 449.738 599.153 439.083 598.166 430C597.712 425.825 598.094 419.909 595.822 416.228C592.238 410.423 577.783 413.546 572.005 414.059C569.372 414.292 566.953 415.127 566.492 418.059C565.776 422.611 568.591 428.569 569.576 433C572.393 445.686 575.48 458.318 578.349 471C579.522 476.184 579.88 484.603 583.564 488.682C587.94 493.527 601.978 491.08 608 490.996C610.583 490.96 613.469 491.016 615.57 489.258C618.152 487.097 618.604 483.072 619.373 480C621.112 473.059 622.204 465.583 625 459M897 460L927 460C930.759 460 936.423 460.963 939.486 458.258C944.278 454.026 942.138 442.295 940.56 437C935.015 418.391 917.415 410.144 899 413.465C860.145 420.47 859.637 486.921 900 491.816C910.908 493.138 923.982 492.374 932.999 485.468C936.1 483.093 941.709 478.562 939.863 474.04C938.009 469.495 927.058 461.646 922 462.871C918.652 463.682 916.187 466.723 913 467.992C906.004 470.775 899.294 466.687 897 460M790 421.424C785.912 421.954 777.682 420.524 774.603 423.603C772.732 425.474 773.017 428.582 773.001 431C772.957 437.407 773.829 443.637 773.985 450C774.214 459.322 774 468.675 774 478C774 480.865 773.088 485.86 775.028 488.258C776.418 489.975 779.006 489.922 781.001 489.985C786.098 490.146 791.943 490.671 796.981 489.852C804.349 488.654 802 477.451 802 472C802 460.613 801 449.353 801 438C801 433.888 802.274 426.998 799.821 423.434C797.699 420.351 793.176 421.013 790 421.424z"/>
</svg>
